<?xml version="1.0" encoding="utf-8"?>
<svg xmlns="http://www.w3.org/2000/svg" height="256" width="256" viewBox="0 0 256 256">
  <g>
    <path id="path1" transform="rotate(0,128,128) translate(19,31.1125887967911) scale(6.81250203028382,6.81250203028382)  " fill="#2C3E50" d="M14.495536,2.4970052C14.995542,2.497005,15.394548,2.6970062,15.794561,3.0960097L15.894554,3.1960082 15.994561,3.1960082 16.193553,3.3960097 24.084649,11.38603 29.07871,6.5920179C29.378716,6.2920177 29.877715,6.0930159 30.277715,6.1930187 30.676721,6.1930187 31.175734,6.3920166 31.475741,6.7920191 32.174739,7.4910223 32.174739,8.5900242 31.475741,9.1890252L25.183661,15.282046C24.583648,15.881046,23.58565,15.881046,22.885631,15.282046L22.686639,15.182046C22.486625,15.08204,22.286626,14.882042,22.186633,14.782044L19.290589,11.786033 16.893573,14.183043 23.684651,21.075061C24.483657,21.874059 24.583648,23.172067 23.784644,23.872066 23.485644,24.171071 23.085645,24.371068 22.586631,24.371068L22.386632,24.371068 22.286626,24.371068 12.897526,24.371068C11.898506,24.371068 11.099501,23.57207 11.099501,22.573066 11.099501,21.574064 11.898506,20.775058 12.897526,20.775058L18.191577,20.775058 14.196536,16.680043 3.1094041,27.86708C2.4104059,28.566079 1.211387,28.666078 0.51237378,27.967078 -0.18662398,27.26708 -0.18662398,26.06907 0.61238126,25.370071L16.693559,9.2890246 16.793567,9.1890252 14.395544,6.7920191 9.5014753,11.486029C8.8024769,12.086037 7.7034659,12.086037 7.1044597,11.38603 6.4054465,10.687031 6.4054465,9.5890276 7.1044597,8.9890282L13.197532,3.0960097 13.297523,2.996007 13.397531,2.8970075C13.69653,2.5970075,14.096529,2.497005,14.495536,2.4970052z M23.185637,0C25.083653,-3.7247446E-08 26.68168,1.5980041 26.68168,3.4960081 26.68168,5.3940165 25.083653,6.9920204 23.185637,6.9920204 21.287621,6.9920204 19.689595,5.3940165 19.689595,3.4960081 19.589602,1.5980041 21.187613,-3.7247446E-08 23.185637,0z" />
  </g>
</svg>

