<?xml version="1.0" encoding="utf-8"?>
<svg xmlns="http://www.w3.org/2000/svg" height="256" width="256" viewBox="0 0 256 256">
  <g>
    <path id="path1" transform="rotate(0,128,128) translate(19,31.1689010639287) scale(6.81164576395229,6.81164576395229)  " fill="#2C3E50" d="M16.003013,13.056043C14.983014,13.056043 14.153015,13.885042 14.153015,14.905043 14.153015,15.924043 14.983014,16.754043 16.003013,16.754043 17.023011,16.754043 17.853009,15.924043 17.853009,14.905043 17.853009,13.885042 17.023011,13.056043 16.003013,13.056043z M22.210717,11.458249C22.068456,11.465187,21.926334,11.548063,21.870834,11.722062L19.247892,19.434053 12.519038,19.434053 9.9030954,11.741062C9.8210966,11.485062 9.5881025,11.422062 9.4191057,11.476062 9.2901088,11.517062 9.2251102,11.611062 9.1981107,11.663062 9.1711112,11.716062 9.1311122,11.824062 9.1721107,11.952062L13.377019,24.315048 12.367042,26.431045 19.531884,26.431045 18.378909,24.349048 22.601817,11.934061C22.636817,11.824062 22.596818,11.716062 22.56982,11.663062 22.542819,11.611062 22.477821,11.517062 22.349824,11.476062 22.305576,11.462062 22.258138,11.455938 22.210717,11.458249z M25.53794,2.000033C24.948959,2.0000327,24.349979,2.3690334,23.755,3.100035L23.388011,3.5510364 22.814031,3.4540361C22.790031,3.4500359 22.608037,3.4240359 22.358047,3.4240359 22.075055,3.4240359 21.390079,3.462036 21.134088,3.8140364 20.921094,4.1060374 20.946094,4.7260388 21.201085,5.5150402L21.310081,5.8520411 21.182086,6.1830419C21.181085,6.188042 20.797097,7.2450441 21.252082,8.0170463 21.546073,8.5180467 22.178052,8.8440479 23.130019,8.9890483L23.408012,9.0310481 23.623004,9.2120488C23.630004,9.2180484 24.64997,10.04805 25.734933,10.04805 26.547906,10.04805 27.213884,9.5490497 27.769866,8.5220474L28.019857,8.061046 28.541839,8.0040458C28.894828,7.962046 29.7478,7.725045 29.949792,7.2950443 30.092788,6.9900435 29.929793,6.4350422 29.501807,5.7720412L29.324813,5.4980405 29.342813,5.1730397C29.353812,4.9340389 29.303813,4.1500376 28.948825,3.7780364 28.857829,3.6840363 28.693833,3.557036 28.322847,3.5570362L27.826863,3.5570362 27.525874,3.1610354C27.277881,2.8410345,26.430909,2.0000327,25.53794,2.000033z M6.4674279,2.0000044C5.4074065,2.0000045,4.487403,3.1499704,4.4784004,3.1609567L4.1783754,3.5569537 3.6813852,3.5569537C3.3123585,3.5569535 3.1513747,3.6770099 3.0523733,3.7819904 2.6893588,4.1659635 2.6513637,4.990001 2.6613432,5.1729849L2.6803562,5.4979976 2.5033499,5.7719854C2.0753316,6.4350117 1.9113417,6.9909819 2.0553421,7.2949985 2.2573425,7.7249921 3.1093511,7.9619921 3.4673611,8.0039848L3.982387,8.0659965 4.2343761,8.5219911C4.7903882,9.5489705 5.4564186,10.047995 6.269425,10.047995 7.1814634,10.047995 8.1234704,9.4289754 8.3814718,9.2119954L8.5964729,9.0320018 8.8744947,8.9900096C9.8265115,8.8440135 10.458514,8.5179628 10.753534,8.0169852 11.207554,7.2450107 10.824519,6.1880015 10.820521,6.1770151L10.699516,5.8520025 10.803523,5.5149654C11.058534,4.7259625 11.083528,4.1059659 10.870541,3.813973 10.61553,3.4619826 9.9295102,3.4239577 9.646515,3.4239577 9.3975164,3.4239577 9.2144987,3.4509962 9.1864826,3.453987L8.618477,3.5449908 8.2494804,3.0999826C7.6554729,2.3700004,7.0554534,2.0000045,6.4674279,2.0000044z M6.4674279,0C7.5414568,1.4015313E-07 8.5404722,0.47998164 9.4414932,1.4279817 9.5064966,1.4259675 9.5754987,1.4239534 9.646515,1.4239534 10.928526,1.4239534 11.910573,1.8439983 12.488558,2.6369689 13.062576,3.4270094 13.167589,4.495005 12.801583,5.8159917 12.973584,6.4489887 13.198596,7.7870043 12.488558,9.0119823 12.235689,9.4477475 11.89725,9.8159412 11.475258,10.114972L11.294196,10.235624 11.345426,10.291179C11.546356,10.526997,11.703305,10.805064,11.802054,11.115063L12.528157,13.249178 12.533233,13.237974C13.155779,11.948213 14.477108,11.056042 16.003013,11.056042 17.39623,11.056042 18.618903,11.799799 19.294862,12.910858L19.331941,12.975253 19.970876,11.096063C20.066625,10.796064,20.22412,10.526251,20.42574,10.296392L20.573165,10.143841 20.529899,10.11501C20.107938,9.8159831 19.76957,9.447799 19.517141,9.0120481 18.807164,7.7870453 19.031158,6.4480422 19.204152,5.8160408 18.837163,4.4950383 18.942161,3.4270359 19.517141,2.6370342 20.094121,1.8440324 21.076089,1.4240314 22.358047,1.4240316 22.430043,1.4240314 22.499042,1.4260314 22.563039,1.4280313 23.464009,0.48002938 24.462976,2.8321106E-05 25.53794,2.8136922E-05 27.094888,2.8321106E-05 28.272849,1.0200306 28.81083,1.5920318 29.439809,1.685032 29.983791,1.9620326 30.404777,2.4070335 31.174752,3.2210353 31.319747,4.3690379 31.340745,4.9450391 32.053723,6.155042 32.192716,7.2360442 31.753732,8.1580461 31.215751,9.2860482 29.992791,9.7310498 29.279815,9.8990501 28.161853,11.662053 26.752898,12.048055 25.734933,12.048055 25.373445,12.048055 25.026082,12.000492 24.70053,11.923445L24.612577,11.900341 24.609361,11.984313C24.59718,12.1776,24.561088,12.370686,24.500777,12.560061L20.556863,24.154046 22.92681,28.431043 9.1951105,28.431043 11.222066,24.188047 7.2721526,12.578061C7.2102791,12.383062,7.1731116,12.186109,7.1601931,11.990163L7.158693,11.953804 7.0557453,11.975366C6.8037468,12.021246 6.5405589,12.048 6.269425,12.048 5.2513973,12.048 3.8433763,11.662012 2.7243632,9.8990081 2.0113348,9.7309783 0.78831555,9.28597 0.25029365,8.1590141 -0.18871124,7.2359775 -0.049715838,6.155958 0.66331269,4.9449571 0.68430932,4.3689669 0.82931681,3.2209542 1.5993232,2.4079643 2.0203377,1.9619795 2.5653633,1.6850013 3.1943747,1.5919836 3.7323815,1.0199608 4.9104167,1.4015313E-07 6.4674279,0z" />
  </g>
</svg>

