<?xml version="1.0" encoding="utf-8"?>
<svg xmlns="http://www.w3.org/2000/svg" height="256" width="256" viewBox="0 0 256 256">
  <g>
    <path id="path1" transform="rotate(0,128,128) translate(19,40.8682083552281) scale(6.81249350309992,6.81249350309992)  " fill="#2C3E50" d="M7.2734581,4.4140009C7.3734943,4.4140009 7.4734689,4.4140009 7.4734689,4.5139918 7.5744816,4.6139979 7.5744816,4.8150019 7.4734689,5.0159907L2.5585288,9.8309931 6.3704501,13.64299 10.182432,9.8309931C10.683466,9.3289942,14.194426,9.4290003,14.5964,9.4290003L16.000381,20.162994 17.304387,9.4290003C17.605411,9.4290003,21.216346,9.4290003,21.718356,9.8309931L25.530337,13.64299 29.342321,9.8309931C29.944307,9.2290034 30.94729,9.2290034 31.549274,9.8309931 32.150281,10.432998 32.150281,11.436004 31.549274,12.037994L26.633296,16.953002C26.332334,17.253997 25.931337,17.354003 25.530337,17.354003 25.128303,17.354003 24.727306,17.253997 24.426343,16.953002L21.317357,13.843002 21.317357,22.871C21.317357,25.078,19.511401,25.579999,17.304387,25.579999L14.5964,25.579999C12.389447,25.579999,10.58343,25.078,10.58343,22.871L10.58343,13.843002 7.4734689,16.953002C7.1724459,17.253997 6.7714478,17.354003 6.3704501,17.354003 5.969452,17.354003 5.5674778,17.253997 5.2664543,16.953002L0.45148889,12.037994C-0.1504963,11.436004 -0.1504963,10.432998 0.45148889,9.8309931 0.75251193,9.5299983 1.1544864,9.4290003 1.5554842,9.4290003 1.6555202,9.4290003 1.8565074,9.4290003 1.9564822,9.5299983L2.0565184,9.5299983 7.0724713,4.5139918C7.0724713,4.4140009,7.1724459,4.4140009,7.2734581,4.4140009z M16.000381,0C18.207397,-1.4963598E-07 20.013351,1.8059995 20.013351,4.013 20.013351,6.2189936 18.207397,8.0249934 16.000381,8.0249934 13.793429,8.0249934 11.987412,6.2189936 11.987412,4.013 11.987412,1.8059995 13.793429,-1.4963598E-07 16.000381,0z" />
  </g>
</svg>

